<svg width="96" height="96" viewBox="0 0 96 96" fill="none" xmlns="http://www.w3.org/2000/svg">
<g transform="translate(12 12)">
<rect width="77" height="77" rx="10" fill="#161414"/>
<circle cx="32" cy="38" r="24" fill="url(#paint0_radial_2029_23)" fill-opacity="0.15" style="mix-blend-mode:lighten"/>
<path d="M55.4657 53.2903C55.4657 55.3 55.0803 57.1857 54.3095 58.9476C53.5662 60.7095 52.5339 62.2512 51.2124 63.5726C49.891 64.894 48.3494 65.9401 46.5875 66.7109C44.8256 67.4542 42.9398 67.8259 40.9302 67.8259H36.7182C34.7085 67.8259 32.809 67.4542 31.0195 66.7109C29.2577 65.9401 27.716 64.894 26.3946 63.5726C25.0732 62.2512 24.0271 60.7095 23.2562 58.9476C22.5129 57.1857 22.1413 55.3 22.1413 53.2903V21.4937C22.1413 19.4841 22.5129 17.5983 23.2562 15.8364C24.0271 14.0745 25.0732 12.5329 26.3946 11.2115C27.716 9.89005 29.2577 8.85769 31.0195 8.11439C32.809 7.34357 34.7085 6.95815 36.7182 6.95815H40.9302C42.9398 6.95815 44.8256 7.34357 46.5875 8.11439C48.3494 8.85769 49.891 9.89005 51.2124 11.2115C52.5339 12.5329 53.5662 14.0745 54.3095 15.8364C55.0803 17.5983 55.4657 19.4841 55.4657 21.4937V23.8888L50.1388 24.7147V21.4937C50.1388 20.1723 49.891 18.9473 49.3955 17.8185C48.9 16.6623 48.2255 15.6575 47.3721 14.8041C46.5187 13.9506 45.5138 13.2762 44.3576 12.7806C43.2289 12.2851 42.0038 12.0373 40.6824 12.0373H36.9659C35.6445 12.0373 34.4057 12.2851 33.2494 12.7806C32.1207 13.2762 31.1159 13.9506 30.235 14.8041C29.3815 15.6575 28.7071 16.6623 28.2115 17.8185C27.716 18.9473 27.4682 20.1723 27.4682 21.4937V53.2903C27.4682 54.6117 27.716 55.8506 28.2115 57.0068C28.7071 58.1355 29.3815 59.1403 30.235 60.0213C31.1159 60.8747 32.1207 61.5492 33.2494 62.0447C34.4057 62.5402 35.6445 62.788 36.9659 62.788H40.6824C42.0038 62.788 43.2289 62.5402 44.3576 62.0447C45.5138 61.5492 46.5187 60.8747 47.3721 60.0213C48.2255 59.1403 48.9 58.1355 49.3955 57.0068C49.891 55.8506 50.1388 54.6117 50.1388 53.2903V50.0694L55.4657 50.9365V53.2903Z" fill="#FFE100"/>
<path d="M53.9568 29.3127C54.7077 29.3128 55.2357 30.0511 54.9939 30.762L49.8269 45.9573C49.6758 46.4016 49.2581 46.7004 48.7888 46.7004C48.038 46.7004 47.5099 45.9621 47.7517 45.2512L52.9187 30.0559C53.0698 29.6116 53.4875 29.3127 53.9568 29.3127ZM44.0593 32.7659C44.8055 32.4336 45.6472 32.9794 45.6472 33.7961C45.6472 34.2425 45.3834 34.6466 44.9753 34.8274L42.9861 35.7092C41.0013 36.5889 41.0043 39.4068 42.991 40.2825L44.9714 41.1555C45.3817 41.3364 45.6471 41.7423 45.6472 42.1907C45.6472 43.0105 44.8021 43.559 44.0535 43.2249L35.5984 39.4514C35.0228 39.1944 34.6521 38.6228 34.6521 37.9924C34.6521 37.3614 35.0239 36.7892 35.6003 36.5325L44.0593 32.7659ZM57.0886 33.7961C57.0888 32.9794 57.9303 32.4336 58.6765 32.7659L67.1355 36.5325C67.7119 36.7892 68.0837 37.3614 68.0837 37.9924C68.0837 38.6228 67.7131 39.1944 67.1375 39.4514L58.6824 43.2249C57.9336 43.5589 57.0886 43.0106 57.0886 42.1907C57.0887 41.7425 57.3536 41.3367 57.7634 41.1555L59.7419 40.2815C61.7259 39.4048 61.7283 36.5906 59.7458 35.7102L57.7595 34.8274C57.3519 34.6463 57.0886 34.2422 57.0886 33.7961Z" fill="url(#paint1_linear_2029_23)" stroke="url(#paint2_linear_2029_23)"/>
<defs>
<radialGradient id="paint0_radial_2029_23" cx="0" cy="0" r="1" gradientUnits="userSpaceOnUse" gradientTransform="translate(32 38) rotate(90) scale(24)">
<stop stop-color="white"/>
<stop offset="1" stop-color="#737373" stop-opacity="0"/>
</radialGradient>
<linearGradient id="paint1_linear_2029_23" x1="31" y1="25" x2="76.5" y2="25" gradientUnits="userSpaceOnUse">
<stop offset="0.225275" stop-color="#FFE100"/>
<stop offset="0.870192" stop-color="#161414"/>
</linearGradient>
<linearGradient id="paint2_linear_2029_23" x1="32.3519" y1="29.8127" x2="74.8219" y2="29.8127" gradientUnits="userSpaceOnUse">
<stop offset="0.21978" stop-color="#FFE100"/>
<stop offset="0.870192" stop-color="#161414"/>
</linearGradient>
</defs>
</g>
</svg>
