<svg width="53" height="64" viewBox="0 0 53 64" fill="none" xmlns="http://www.w3.org/2000/svg">
<path d="M39.2295 47.2903C39.2295 49.3 38.8441 51.1857 38.0733 52.9476C37.33 54.7095 36.2976 56.2512 34.9762 57.5726C33.6548 58.894 32.1132 59.9401 30.3513 60.7109C28.5894 61.4542 26.7036 61.8259 24.694 61.8259H20.482C18.4723 61.8259 16.5728 61.4542 14.7833 60.7109C13.0215 59.9401 11.4798 58.894 10.1584 57.5726C8.83697 56.2512 7.79085 54.7095 7.02002 52.9476C6.27673 51.1857 5.90508 49.3 5.90508 47.2903V15.4937C5.90508 13.4841 6.27673 11.5983 7.02002 9.83642C7.79085 8.07453 8.83697 6.53288 10.1584 5.21146C11.4798 3.89005 13.0215 2.85769 14.7833 2.11439C16.5728 1.34357 18.4723 0.958154 20.482 0.958154H24.694C26.7036 0.958154 28.5894 1.34357 30.3513 2.11439C32.1132 2.85769 33.6548 3.89005 34.9762 5.21146C36.2976 6.53288 37.33 8.07453 38.0733 9.83642C38.8441 11.5983 39.2295 13.4841 39.2295 15.4937V17.8888L33.9026 18.7147V15.4937C33.9026 14.1723 33.6548 12.9473 33.1593 11.8185C32.6638 10.6623 31.9893 9.65748 31.1359 8.80406C30.2825 7.95065 29.2776 7.27618 28.1214 6.78064C26.9927 6.28511 25.7676 6.03735 24.4462 6.03735H20.7297C19.4083 6.03735 18.1695 6.28511 17.0132 6.78064C15.8845 7.27618 14.8797 7.95065 13.9988 8.80406C13.1453 9.65748 12.4709 10.6623 11.9753 11.8185C11.4798 12.9473 11.232 14.1723 11.232 15.4937V47.2903C11.232 48.6117 11.4798 49.8506 11.9753 51.0068C12.4709 52.1355 13.1453 53.1403 13.9988 54.0213C14.8797 54.8747 15.8845 55.5492 17.0132 56.0447C18.1695 56.5402 19.4083 56.788 20.7297 56.788H24.4462C25.7676 56.788 26.9927 56.5402 28.1214 56.0447C29.2776 55.5492 30.2825 54.8747 31.1359 54.0213C31.9893 53.1403 32.6638 52.1355 33.1593 51.0068C33.6548 49.8506 33.9026 48.6117 33.9026 47.2903V44.0694L39.2295 44.9365V47.2903Z" fill="#FFE100"/>
<path d="M37.9568 23.3127C38.7077 23.3128 39.2357 24.0511 38.9939 24.762L33.8269 39.9573C33.6758 40.4016 33.2581 40.7004 32.7888 40.7004C32.038 40.7004 31.5099 39.9621 31.7517 39.2512L36.9187 24.0559C37.0698 23.6116 37.4875 23.3127 37.9568 23.3127ZM28.0593 26.7659C28.8055 26.4336 29.6472 26.9794 29.6472 27.7961C29.6472 28.2425 29.3834 28.6466 28.9753 28.8274L26.9861 29.7092C25.0013 30.5889 25.0043 33.4068 26.991 34.2825L28.9714 35.1555C29.3817 35.3364 29.6471 35.7423 29.6472 36.1907C29.6472 37.0105 28.8021 37.559 28.0535 37.2249L19.5984 33.4514C19.0228 33.1944 18.6521 32.6228 18.6521 31.9924C18.6521 31.3614 19.0239 30.7892 19.6003 30.5325L28.0593 26.7659ZM41.0886 27.7961C41.0888 26.9794 41.9303 26.4336 42.6765 26.7659L51.1355 30.5325C51.7119 30.7892 52.0837 31.3614 52.0837 31.9924C52.0837 32.6228 51.7131 33.1944 51.1375 33.4514L42.6824 37.2249C41.9336 37.5589 41.0886 37.0106 41.0886 36.1907C41.0887 35.7425 41.3536 35.3367 41.7634 35.1555L43.7419 34.2815C45.7259 33.4048 45.7283 30.5906 43.7458 29.7102L41.7595 28.8274C41.3519 28.6463 41.0886 28.2422 41.0886 27.7961Z" fill="url(#paint0_linear_2039_7)" stroke="url(#paint1_linear_2039_7)"/>
<defs>
<linearGradient id="paint0_linear_2039_7" x1="15" y1="19" x2="60.5" y2="19" gradientUnits="userSpaceOnUse">
<stop offset="0.225275" stop-color="#FFE100"/>
<stop offset="0.716346" stop-color="#161414" stop-opacity="0"/>
</linearGradient>
<linearGradient id="paint1_linear_2039_7" x1="15" y1="19" x2="60.5" y2="19" gradientUnits="userSpaceOnUse">
<stop offset="0.225275" stop-color="#FFE100"/>
<stop offset="0.716346" stop-color="#161414" stop-opacity="0"/>
</linearGradient>
</defs>
</svg>
