<svg width="143" height="105" viewBox="0 0 143 105" fill="none" xmlns="http://www.w3.org/2000/svg">
<path d="M25.7331 84.0069C25.7331 85.3252 25.4803 86.5622 24.9747 87.7179C24.4871 88.8737 23.8099 89.8849 22.9431 90.7517C22.0763 91.6185 21.0651 92.3048 19.9093 92.8104C18.7536 93.298 17.5166 93.5418 16.1983 93.5418H13.4354C12.1171 93.5418 10.8711 93.298 9.69733 92.8104C8.5416 92.3048 7.53033 91.6185 6.66353 90.7517C5.79673 89.8849 5.11051 88.8737 4.60488 87.7179C4.1173 86.5622 3.87351 85.3252 3.87351 84.0069V63.1496C3.87351 61.8313 4.1173 60.5943 4.60488 59.4386C5.11051 58.2828 5.79673 57.2716 6.66353 56.4048C7.53033 55.538 8.5416 54.8608 9.69733 54.3732C10.8711 53.8676 12.1171 53.6148 13.4354 53.6148H16.1983C17.5166 53.6148 18.7536 53.8676 19.9093 54.3732C21.0651 54.8608 22.0763 55.538 22.9431 56.4048C23.8099 57.2716 24.4871 58.2828 24.9747 59.4386C25.4803 60.5943 25.7331 61.8313 25.7331 63.1496V64.7206L22.2388 65.2624V63.1496C22.2388 62.2828 22.0763 61.4792 21.7513 60.7388C21.4262 59.9803 20.9838 59.3212 20.424 58.7614C19.8642 58.2016 19.205 57.7591 18.4466 57.4341C17.7062 57.109 16.9026 56.9465 16.0358 56.9465H13.5979C12.7311 56.9465 11.9185 57.109 11.1601 57.4341C10.4197 57.7591 9.76053 58.2016 9.18267 58.7614C8.62286 59.3212 8.18043 59.9803 7.85538 60.7388C7.53033 61.4792 7.3678 62.2828 7.3678 63.1496V84.0069C7.3678 84.8737 7.53033 85.6864 7.85538 86.4448C8.18043 87.1852 8.62286 87.8443 9.18267 88.4222C9.76053 88.982 10.4197 89.4244 11.1601 89.7495C11.9185 90.0745 12.7311 90.2371 13.5979 90.2371H16.0358C16.9026 90.2371 17.7062 90.0745 18.4466 89.7495C19.205 89.4244 19.8642 88.982 20.424 88.4222C20.9838 87.8443 21.4262 87.1852 21.7513 86.4448C22.0763 85.6864 22.2388 84.8737 22.2388 84.0069V81.8941L25.7331 82.463V84.0069ZM33.5343 93V54.1565H36.8661V93H33.5343ZM62.0846 93L60.2426 90.2371C59.4842 91.2303 58.5361 92.0339 57.3984 92.6479C56.2608 93.2438 55.0147 93.5418 53.6604 93.5418H52.8207C51.701 93.5418 50.6446 93.3341 49.6514 92.9187C48.6582 92.4853 47.7914 91.8984 47.051 91.158C46.3106 90.4177 45.7237 89.5509 45.2903 88.5576C44.875 87.5644 44.6673 86.508 44.6673 85.3884V85.1175C44.6673 83.9979 44.875 82.9415 45.2903 81.9483C45.7237 80.9551 46.3106 80.0883 47.051 79.3479C47.7914 78.6075 48.6582 78.0296 49.6514 77.6143C50.6446 77.1809 51.701 76.9642 52.8207 76.9642H59.8634V72.6844C59.8634 72.0162 59.737 71.3932 59.4842 70.8153C59.2314 70.2194 58.8883 69.7047 58.4549 69.2713C58.0215 68.8379 57.5068 68.4948 56.9109 68.242C56.333 67.9892 55.71 67.8628 55.0418 67.8628H53.0915C52.4234 67.8628 51.7913 67.9892 51.1954 68.242C50.6175 68.4948 50.1119 68.8379 49.6785 69.2713C49.2451 69.7047 48.902 70.2194 48.6492 70.8153C48.3964 71.3932 48.27 72.0162 48.27 72.6844V73.6866L44.9382 73.1449V72.874C44.9382 71.7544 45.1459 70.6979 45.5612 69.7047C45.9946 68.7115 46.5815 67.8447 47.3219 67.1043C48.0623 66.3639 48.9291 65.7861 49.9223 65.3707C50.9155 64.9373 51.9719 64.7206 53.0915 64.7206H55.0418C56.1614 64.7206 57.2179 64.9373 58.2111 65.3707C59.2043 65.7861 60.0711 66.3639 60.8115 67.1043C61.5519 67.8447 62.1297 68.7115 62.5451 69.7047C62.9785 70.6979 63.1952 71.7544 63.1952 72.874V93H62.0846ZM59.8634 79.5646H52.8207C52.1525 79.5646 51.5205 79.691 50.9245 79.9438C50.3467 80.1966 49.841 80.5488 49.4076 81.0002C48.9742 81.4336 48.6311 81.9483 48.3783 82.5442C48.1255 83.1221 47.9991 83.7451 47.9991 84.4133V85.578C47.9991 86.2462 48.1255 86.8782 48.3783 87.4741C48.6311 88.052 48.9742 88.5576 49.4076 88.991C49.841 89.4244 50.3467 89.7676 50.9245 90.0204C51.5205 90.2732 52.1525 90.3996 52.8207 90.3996H55.0418C55.71 90.3996 56.333 90.2732 56.9109 90.0204C57.5068 89.7676 58.0215 89.4244 58.4549 88.991C58.8883 88.5576 59.2314 88.052 59.4842 87.4741C59.737 86.8782 59.8634 86.2462 59.8634 85.578V79.5646ZM87.276 93L85.434 90.1829C84.6756 91.2122 83.7275 92.0339 82.5898 92.6479C81.4522 93.2438 80.2061 93.5418 78.8518 93.5418H78.012C76.8924 93.5418 75.836 93.3341 74.8428 92.9187C73.8496 92.4853 72.9828 91.8984 72.2424 91.158C71.502 90.4177 70.9151 89.5509 70.4817 88.5576C70.0664 87.5644 69.8587 86.508 69.8587 85.3884V65.2624H73.1905V85.578C73.1905 86.2462 73.3169 86.8782 73.5697 87.4741C73.8225 88.052 74.1656 88.5576 74.599 88.991C75.0324 89.4244 75.5381 89.7676 76.1159 90.0204C76.7118 90.2732 77.3439 90.3996 78.012 90.3996H80.2332C80.9014 90.3996 81.5244 90.2732 82.1023 90.0204C82.6982 89.7676 83.2128 89.4244 83.6462 88.991C84.0796 88.5576 84.4228 88.052 84.6756 87.4741C84.9284 86.8782 85.0548 86.2462 85.0548 85.578V65.2624H88.3866V93H87.276ZM112.467 93L110.625 90.1829C109.867 91.2122 108.919 92.0339 107.781 92.6479C106.644 93.2438 105.398 93.5418 104.043 93.5418H103.203C102.084 93.5418 101.027 93.3341 100.034 92.9187C99.041 92.4853 98.1742 91.8984 97.4338 91.158C96.6934 90.4177 96.1065 89.5509 95.6731 88.5576C95.2578 87.5644 95.0501 86.508 95.0501 85.3884V72.874C95.0501 71.7544 95.2578 70.6979 95.6731 69.7047C96.1065 68.7115 96.6934 67.8447 97.4338 67.1043C98.1742 66.3639 99.041 65.7861 100.034 65.3707C101.027 64.9373 102.084 64.7206 103.203 64.7206H104.043C105.289 64.7206 106.445 64.9735 107.51 65.4791C108.576 65.9847 109.488 66.689 110.246 67.5919V54.1565H113.578V93H112.467ZM110.246 72.6844C110.246 72.0162 110.12 71.3932 109.867 70.8153C109.614 70.2194 109.271 69.7047 108.838 69.2713C108.404 68.8379 107.89 68.4948 107.294 68.242C106.716 67.9892 106.093 67.8628 105.425 67.8628H103.203C102.535 67.8628 101.903 67.9892 101.307 68.242C100.729 68.4948 100.224 68.8379 99.7904 69.2713C99.357 69.7047 99.0139 70.2194 98.7611 70.8153C98.5083 71.3932 98.3819 72.0162 98.3819 72.6844V85.578C98.3819 86.2462 98.5083 86.8782 98.7611 87.4741C99.0139 88.052 99.357 88.5576 99.7904 88.991C100.224 89.4244 100.729 89.7676 101.307 90.0204C101.903 90.2732 102.535 90.3996 103.203 90.3996H105.425C106.093 90.3996 106.716 90.2732 107.294 90.0204C107.89 89.7676 108.404 89.4244 108.838 88.991C109.271 88.5576 109.614 88.052 109.867 87.4741C110.12 86.8782 110.246 86.2462 110.246 85.578V72.6844ZM124.738 104.106H121.515L126.445 90.6163L117.451 65.2624H120.783L128.016 86.2823L128.124 87.7179L128.232 86.2823L135.438 65.2624H138.769L124.738 104.106Z" fill="#FFE100"/>
<path d="M108.016 43.7803C109.25 43.7804 110.25 44.7815 110.25 46.0156C110.25 47.2496 109.25 48.2498 108.016 48.25H73.9678C72.7337 48.25 71.7336 47.2497 71.7334 46.0156C71.7334 44.7815 72.7336 43.7803 73.9678 43.7803H108.016ZM33.75 3.36719C33.7503 1.60451 35.5668 0.427542 37.1758 1.14746L66.4131 14.2305C67.879 14.8864 68.8232 16.3423 68.8232 17.9482C68.8232 19.5528 67.8811 21.0084 66.417 21.665L37.1953 34.7686C35.5777 35.4937 33.7503 34.3107 33.75 32.5381C33.75 31.5714 34.3196 30.695 35.2031 30.3027L45.8086 25.5947C52.4194 22.6597 52.4284 13.2807 45.8232 10.333L35.1914 5.58887C34.3147 5.19769 33.75 4.32716 33.75 3.36719Z" fill="url(#paint0_linear_2045_14)" stroke="url(#paint1_linear_2045_14)" stroke-width="0.5"/>
<defs>
<linearGradient id="paint0_linear_2045_14" x1="24.27" y1="-14.0966" x2="130.894" y2="-14.0966" gradientUnits="userSpaceOnUse">
<stop offset="0.225275" stop-color="#FFE100"/>
<stop offset="0.870192" stop-color="#161414"/>
</linearGradient>
<linearGradient id="paint1_linear_2045_14" x1="27.438" y1="0" x2="126.962" y2="0" gradientUnits="userSpaceOnUse">
<stop offset="0.21978" stop-color="#FFE100"/>
<stop offset="0.870192" stop-color="#161414"/>
</linearGradient>
</defs>
</svg>
