<svg width="249" height="78" viewBox="0 0 249 78" fill="none" xmlns="http://www.w3.org/2000/svg">
<circle cx="24" cy="32" r="24" fill="url(#paint0_radial_2030_93)" fill-opacity="0.15" style="mix-blend-mode:lighten"/>
<path d="M47.2295 47.2903C47.2295 49.3 46.8441 51.1857 46.0733 52.9476C45.33 54.7095 44.2976 56.2512 42.9762 57.5726C41.6548 58.894 40.1132 59.9401 38.3513 60.7109C36.5894 61.4542 34.7036 61.8259 32.694 61.8259H28.482C26.4723 61.8259 24.5728 61.4542 22.7833 60.7109C21.0215 59.9401 19.4798 58.894 18.1584 57.5726C16.837 56.2512 15.7908 54.7095 15.02 52.9476C14.2767 51.1857 13.9051 49.3 13.9051 47.2903V15.4937C13.9051 13.4841 14.2767 11.5983 15.02 9.83642C15.7908 8.07453 16.837 6.53288 18.1584 5.21146C19.4798 3.89005 21.0215 2.85769 22.7833 2.11439C24.5728 1.34357 26.4723 0.958154 28.482 0.958154H32.694C34.7036 0.958154 36.5894 1.34357 38.3513 2.11439C40.1132 2.85769 41.6548 3.89005 42.9762 5.21146C44.2976 6.53288 45.33 8.07453 46.0733 9.83642C46.8441 11.5983 47.2295 13.4841 47.2295 15.4937V17.8888L41.9026 18.7147V15.4937C41.9026 14.1723 41.6548 12.9473 41.1593 11.8185C40.6638 10.6623 39.9893 9.65748 39.1359 8.80406C38.2825 7.95065 37.2776 7.27618 36.1214 6.78064C34.9927 6.28511 33.7676 6.03735 32.4462 6.03735H28.7297C27.4083 6.03735 26.1695 6.28511 25.0132 6.78064C23.8845 7.27618 22.8797 7.95065 21.9988 8.80406C21.1453 9.65748 20.4709 10.6623 19.9753 11.8185C19.4798 12.9473 19.232 14.1723 19.232 15.4937V47.2903C19.232 48.6117 19.4798 49.8506 19.9753 51.0068C20.4709 52.1355 21.1453 53.1403 21.9988 54.0213C22.8797 54.8747 23.8845 55.5492 25.0132 56.0447C26.1695 56.5402 27.4083 56.788 28.7297 56.788H32.4462C33.7676 56.788 34.9927 56.5402 36.1214 56.0447C37.2776 55.5492 38.2825 54.8747 39.1359 54.0213C39.9893 53.1403 40.6638 52.1355 41.1593 51.0068C41.6548 49.8506 41.9026 48.6117 41.9026 47.2903V44.0694L47.2295 44.9365V47.2903ZM59.1223 61V1.78404H64.2015V61H59.1223ZM102.646 61L99.8384 56.788C98.6822 58.3021 97.2369 59.5272 95.5025 60.4632C93.7682 61.3716 91.8686 61.8259 89.8039 61.8259H88.5238C86.817 61.8259 85.2065 61.5093 83.6924 60.8761C82.1782 60.2154 80.8568 59.3207 79.7281 58.192C78.5994 57.0633 77.7047 55.7419 77.044 54.2277C76.4108 52.7136 76.0942 51.1031 76.0942 49.3963V48.9834C76.0942 47.2765 76.4108 45.6661 77.044 44.1519C77.7047 42.6378 78.5994 41.3164 79.7281 40.1877C80.8568 39.059 82.1782 38.178 83.6924 37.5449C85.2065 36.8842 86.817 36.5538 88.5238 36.5538H99.2603V30.0293C99.2603 29.0107 99.0676 28.0609 98.6822 27.18C98.2968 26.2715 97.7737 25.4869 97.113 24.8262C96.4523 24.1655 95.6677 23.6425 94.7592 23.2571C93.8783 22.8716 92.9285 22.6789 91.9099 22.6789H88.9367C87.9181 22.6789 86.9546 22.8716 86.0461 23.2571C85.1652 23.6425 84.3944 24.1655 83.7337 24.8262C83.073 25.4869 82.5499 26.2715 82.1645 27.18C81.7791 28.0609 81.5864 29.0107 81.5864 30.0293V31.5572L76.5072 30.7313V30.3184C76.5072 28.6115 76.8238 27.0011 77.4569 25.4869C78.1176 23.9728 79.0124 22.6514 80.1411 21.5227C81.2698 20.394 82.5912 19.513 84.1053 18.8799C85.6194 18.2192 87.2299 17.8888 88.9367 17.8888H91.9099C93.6168 17.8888 95.2272 18.2192 96.7414 18.8799C98.2555 19.513 99.5769 20.394 100.706 21.5227C101.834 22.6514 102.715 23.9728 103.348 25.4869C104.009 27.0011 104.339 28.6115 104.339 30.3184V61H102.646ZM99.2603 40.518H88.5238C87.5052 40.518 86.5417 40.7108 85.6332 41.0962C84.7523 41.4816 83.9814 42.0184 83.3207 42.7066C82.66 43.3674 82.1369 44.1519 81.7515 45.0604C81.3661 45.9414 81.1734 46.8911 81.1734 47.9097V49.6854C81.1734 50.704 81.3661 51.6675 81.7515 52.576C82.1369 53.4569 82.66 54.2277 83.3207 54.8885C83.9814 55.5492 84.7523 56.0722 85.6332 56.4576C86.5417 56.843 87.5052 57.0358 88.5238 57.0358H91.9099C92.9285 57.0358 93.8783 56.843 94.7592 56.4576C95.6677 56.0722 96.4523 55.5492 97.113 54.8885C97.7737 54.2277 98.2968 53.4569 98.6822 52.576C99.0676 51.6675 99.2603 50.704 99.2603 49.6854V40.518ZM141.05 61L138.242 56.7054C137.086 58.2746 135.641 59.5272 133.906 60.4632C132.172 61.3716 130.272 61.8259 128.208 61.8259H126.927C125.221 61.8259 123.61 61.5093 122.096 60.8761C120.582 60.2154 119.26 59.3207 118.132 58.192C117.003 57.0633 116.108 55.7419 115.448 54.2277C114.814 52.7136 114.498 51.1031 114.498 49.3963V18.7147H119.577V49.6854C119.577 50.704 119.77 51.6675 120.155 52.576C120.541 53.4569 121.064 54.2277 121.724 54.8885C122.385 55.5492 123.156 56.0722 124.037 56.4576C124.945 56.843 125.909 57.0358 126.927 57.0358H130.314C131.332 57.0358 132.282 56.843 133.163 56.4576C134.071 56.0722 134.856 55.5492 135.517 54.8885C136.177 54.2277 136.7 53.4569 137.086 52.576C137.471 51.6675 137.664 50.704 137.664 49.6854V18.7147H142.743V61H141.05ZM179.454 61L176.646 56.7054C175.489 58.2746 174.044 59.5272 172.31 60.4632C170.575 61.3716 168.676 61.8259 166.611 61.8259H165.331C163.624 61.8259 162.014 61.5093 160.5 60.8761C158.986 60.2154 157.664 59.3207 156.535 58.192C155.407 57.0633 154.512 55.7419 153.851 54.2277C153.218 52.7136 152.902 51.1031 152.902 49.3963V30.3184C152.902 28.6115 153.218 27.0011 153.851 25.4869C154.512 23.9728 155.407 22.6514 156.535 21.5227C157.664 20.394 158.986 19.513 160.5 18.8799C162.014 18.2192 163.624 17.8888 165.331 17.8888H166.611C168.511 17.8888 170.273 18.2742 171.897 19.045C173.521 19.8159 174.911 20.8895 176.068 22.266V1.78404H181.147V61H179.454ZM176.068 30.0293C176.068 29.0107 175.875 28.0609 175.489 27.18C175.104 26.2715 174.581 25.4869 173.92 24.8262C173.26 24.1655 172.475 23.6425 171.567 23.2571C170.686 22.8716 169.736 22.6789 168.717 22.6789H165.331C164.313 22.6789 163.349 22.8716 162.441 23.2571C161.56 23.6425 160.789 24.1655 160.128 24.8262C159.467 25.4869 158.944 26.2715 158.559 27.18C158.173 28.0609 157.981 29.0107 157.981 30.0293V49.6854C157.981 50.704 158.173 51.6675 158.559 52.576C158.944 53.4569 159.467 54.2277 160.128 54.8885C160.789 55.5492 161.56 56.0722 162.441 56.4576C163.349 56.843 164.313 57.0358 165.331 57.0358H168.717C169.736 57.0358 170.686 56.843 171.567 56.4576C172.475 56.0722 173.26 55.5492 173.92 54.8885C174.581 54.2277 175.104 53.4569 175.489 52.576C175.875 51.6675 176.068 50.704 176.068 49.6854V30.0293ZM198.16 77.9306H193.246L200.762 57.3661L187.052 18.7147H192.131L203.157 50.759L203.322 52.9476L203.487 50.759L214.471 18.7147H219.55L198.16 77.9306Z" fill="#FFE100"/>
<path d="M45.9568 23.3127C46.7077 23.3128 47.2357 24.0511 46.9939 24.762L41.8269 39.9573C41.6758 40.4016 41.2581 40.7004 40.7888 40.7004C40.038 40.7004 39.5099 39.9621 39.7517 39.2512L44.9187 24.0559C45.0698 23.6116 45.4875 23.3127 45.9568 23.3127ZM36.0593 26.7659C36.8055 26.4336 37.6472 26.9794 37.6472 27.7961C37.6472 28.2425 37.3834 28.6466 36.9753 28.8274L34.9861 29.7092C33.0013 30.5889 33.0043 33.4068 34.991 34.2825L36.9714 35.1555C37.3817 35.3364 37.6471 35.7423 37.6472 36.1907C37.6472 37.0105 36.8021 37.559 36.0535 37.2249L27.5984 33.4514C27.0228 33.1944 26.6521 32.6228 26.6521 31.9924C26.6521 31.3614 27.0239 30.7892 27.6003 30.5325L36.0593 26.7659ZM49.0886 27.7961C49.0888 26.9794 49.9303 26.4336 50.6765 26.7659L59.1355 30.5325C59.7119 30.7892 60.0837 31.3614 60.0837 31.9924C60.0837 32.6228 59.7131 33.1944 59.1375 33.4514L50.6824 37.2249C49.9336 37.5589 49.0886 37.0106 49.0886 36.1907C49.0887 35.7425 49.3536 35.3367 49.7634 35.1555L51.7419 34.2815C53.7259 33.4048 53.7283 30.5906 51.7458 29.7102L49.7595 28.8274C49.3519 28.6463 49.0886 28.2422 49.0886 27.7961Z" fill="url(#paint1_linear_2030_93)" stroke="url(#paint2_linear_2030_93)"/>
<defs>
<radialGradient id="paint0_radial_2030_93" cx="0" cy="0" r="1" gradientUnits="userSpaceOnUse" gradientTransform="translate(24 32) rotate(90) scale(24)">
<stop stop-color="white"/>
<stop offset="1" stop-color="#737373" stop-opacity="0"/>
</radialGradient>
<linearGradient id="paint1_linear_2030_93" x1="23" y1="19" x2="68.5" y2="19" gradientUnits="userSpaceOnUse">
<stop offset="0.225275" stop-color="#FFE100"/>
<stop offset="0.716346" stop-color="#161414" stop-opacity="0"/>
</linearGradient>
<linearGradient id="paint2_linear_2030_93" x1="23" y1="19" x2="68.5" y2="19" gradientUnits="userSpaceOnUse">
<stop offset="0.225275" stop-color="#FFE100"/>
<stop offset="0.716346" stop-color="#161414" stop-opacity="0"/>
</linearGradient>
</defs>
</svg>
